<?xml version="1.0" encoding="UTF-8" standalone="no"?>
<!-- Creator: CorelDRAW -->

<svg
   xml:space="preserve"
   width="48.542034mm"
   height="48.542015mm"
   version="1.1"
   style="clip-rule:evenodd;fill-rule:evenodd;image-rendering:optimizeQuality;shape-rendering:geometricPrecision;text-rendering:geometricPrecision"
   viewBox="0 0 242.16003 242.15871"
   id="svg118"
   xmlns:xlink="http://www.w3.org/1999/xlink"
   xmlns="http://www.w3.org/2000/svg"
   xmlns:svg="http://www.w3.org/2000/svg">
 <defs
   id="defs12"><linearGradient
     id="linearGradient119"><stop
       style="stop-color:#fefefe;stop-opacity:1;"
       offset="0"
       id="stop119" /><stop
       style="stop-color:#fefefe;stop-opacity:0;"
       offset="1"
       id="stop120" /></linearGradient><style
     type="text/css"
     id="style1">
   <![CDATA[
    .fil266 {fill:none}
    .fil260 {fill:#FEFEFE}
    .fil256 {fill:#FEFEFE}
    .fil259 {fill:#373435}
    .fil2 {fill:#EE3D37}
    .fil1 {fill:#EE3737}
    .fil255 {fill:#ED3237}
    .fil7 {fill:#EF5636}
    .fil6 {fill:#EE5136}
    .fil5 {fill:#EE4C37}
    .fil4 {fill:#EE4837}
    .fil3 {fill:#ED4337}
    .fil12 {fill:#EF6A36}
    .fil11 {fill:#EF6736}
    .fil10 {fill:#EF6336}
    .fil9 {fill:#EE5E36}
    .fil8 {fill:#EE5A36}
    .fil254 {fill:#EB3439}
    .fil16 {fill:#F07936}
    .fil15 {fill:#F07636}
    .fil14 {fill:#EF7236}
    .fil13 {fill:#EF6E36}
    .fil21 {fill:#F18B35}
    .fil20 {fill:#F18735}
    .fil19 {fill:#F08435}
    .fil18 {fill:#F08135}
    .fil17 {fill:#EF7D36}
    .fil253 {fill:#E9353B}
    .fil26 {fill:#F39C34}
    .fil25 {fill:#F29834}
    .fil24 {fill:#F29434}
    .fil23 {fill:#F19135}
    .fil22 {fill:#F18E35}
    .fil31 {fill:#F4AD32}
    .fil30 {fill:#F4AA32}
    .fil29 {fill:#F3A633}
    .fil28 {fill:#F3A233}
    .fil27 {fill:#F29F34}
    .fil252 {fill:#E8373E}
    .fil36 {fill:#F6BF2F}
    .fil35 {fill:#F6BC30}
    .fil34 {fill:#F5B830}
    .fil33 {fill:#F5B531}
    .fil32 {fill:#F4B032}
    .fil41 {fill:#F8D12A}
    .fil40 {fill:#F7CE2B}
    .fil39 {fill:#F7CA2C}
    .fil38 {fill:#F6C62D}
    .fil37 {fill:#F6C32E}
    .fil251 {fill:#E73841}
    .fil46 {fill:#F9E323}
    .fil45 {fill:#F9DF25}
    .fil44 {fill:#F8DC26}
    .fil43 {fill:#F8D828}
    .fil42 {fill:#F7D429}
    .fil48 {fill:#FAEB20}
    .fil47 {fill:#F9E622}
    .fil250 {fill:#E53943}
    .fil49 {fill:#FAEC21}
    .fil249 {fill:#E43A47}
    .fil248 {fill:#E33B4A}
    .fil50 {fill:#F6EB24}
    .fil247 {fill:#E13D4D}
    .fil246 {fill:#E03E50}
    .fil51 {fill:#F2EA26}
    .fil245 {fill:#DF3F54}
    .fil244 {fill:#DE4057}
    .fil52 {fill:#EFE829}
    .fil243 {fill:#DC415A}
    .fil242 {fill:#DB435D}
    .fil53 {fill:#EBE72B}
    .fil241 {fill:#D94460}
    .fil240 {fill:#D84562}
    .fil54 {fill:#E8E62D}
    .fil239 {fill:#D74666}
    .fil238 {fill:#D54869}
    .fil237 {fill:#D4486C}
    .fil55 {fill:#E3E430}
    .fil236 {fill:#D3496F}
    .fil235 {fill:#D14A72}
    .fil56 {fill:#E0E332}
    .fil234 {fill:#D04A75}
    .fil233 {fill:#CE4C78}
    .fil57 {fill:#DCE133}
    .fil232 {fill:#CD4D7C}
    .fil58 {fill:#D9E035}
    .fil231 {fill:#CB4D7F}
    .fil230 {fill:#C94E82}
    .fil59 {fill:#D5DF36}
    .fil229 {fill:#C84F85}
    .fil228 {fill:#C65088}
    .fil60 {fill:#D2DE38}
    .fil227 {fill:#C5518B}
    .fil226 {fill:#C3518F}
    .fil61 {fill:#CEDC39}
    .fil225 {fill:#C25292}
    .fil224 {fill:#C05395}
    .fil62 {fill:#CADB3B}
    .fil223 {fill:#BE5599}
    .fil222 {fill:#BC559E}
    .fil63 {fill:#C7DA3C}
    .fil221 {fill:#BA559F}
    .fil64 {fill:#C3D83D}
    .fil220 {fill:#B7569F}
    .fil65 {fill:#BFD73E}
    .fil219 {fill:#B4569F}
    .fil66 {fill:#BCD640}
    .fil218 {fill:#B2569F}
    .fil67 {fill:#B8D441}
    .fil217 {fill:#AF56A0}
    .fil68 {fill:#B4D342}
    .fil216 {fill:#AC56A0}
    .fil69 {fill:#B0D243}
    .fil215 {fill:#A956A0}
    .fil70 {fill:#ADD144}
    .fil214 {fill:#A657A0}
    .fil71 {fill:#A9CF45}
    .fil213 {fill:#A457A0}
    .fil72 {fill:#A5CE46}
    .fil212 {fill:#A157A0}
    .fil73 {fill:#A1CD47}
    .fil211 {fill:#9E57A1}
    .fil74 {fill:#9DCB47}
    .fil210 {fill:#9B57A1}
    .fil75 {fill:#99CA48}
    .fil209 {fill:#9957A1}
    .fil76 {fill:#95C949}
    .fil208 {fill:#9657A1}
    .fil77 {fill:#91C84A}
    .fil207 {fill:#9357A1}
    .fil78 {fill:#8DC74A}
    .fil206 {fill:#9157A1}
    .fil205 {fill:#8F58A2}
    .fil79 {fill:#8AC54B}
    .fil204 {fill:#8C58A2}
    .fil80 {fill:#86C44C}
    .fil203 {fill:#8958A2}
    .fil81 {fill:#82C34C}
    .fil132 {fill:#62CAE4}
    .fil131 {fill:#62CAE0}
    .fil130 {fill:#63C9DD}
    .fil133 {fill:#62C8E4}
    .fil202 {fill:#8658A2}
    .fil129 {fill:#63C9D9}
    .fil128 {fill:#64C9D6}
    .fil82 {fill:#7DC24D}
    .fil127 {fill:#64C8D2}
    .fil126 {fill:#65C8CF}
    .fil125 {fill:#66C8CC}
    .fil134 {fill:#61C5E3}
    .fil124 {fill:#65C7C9}
    .fil123 {fill:#66C7C5}
    .fil122 {fill:#66C7C2}
    .fil121 {fill:#67C6BE}
    .fil135 {fill:#5FC2E1}
    .fil201 {fill:#8458A2}
    .fil120 {fill:#66C6BB}
    .fil119 {fill:#67C6B8}
    .fil83 {fill:#79C14E}
    .fil118 {fill:#67C5B4}
    .fil117 {fill:#67C5B1}
    .fil136 {fill:#5EBEDF}
    .fil116 {fill:#67C4AE}
    .fil115 {fill:#68C4AB}
    .fil114 {fill:#68C4A7}
    .fil113 {fill:#68C4A4}
    .fil112 {fill:#69C3A1}
    .fil137 {fill:#5DBCDE}
    .fil200 {fill:#8158A3}
    .fil111 {fill:#68C39E}
    .fil110 {fill:#69C39A}
    .fil84 {fill:#75C04E}
    .fil109 {fill:#68C297}
    .fil108 {fill:#69C294}
    .fil138 {fill:#5CB9DC}
    .fil107 {fill:#69C291}
    .fil106 {fill:#69C28E}
    .fil105 {fill:#69C18B}
    .fil104 {fill:#69C187}
    .fil139 {fill:#5BB6DB}
    .fil199 {fill:#7E58A3}
    .fil103 {fill:#69C184}
    .fil102 {fill:#69C081}
    .fil101 {fill:#6AC07D}
    .fil85 {fill:#71BF4F}
    .fil100 {fill:#69C079}
    .fil99 {fill:#6AC076}
    .fil140 {fill:#5AB3D9}
    .fil98 {fill:#69BF72}
    .fil97 {fill:#6ABF6F}
    .fil96 {fill:#69BF6B}
    .fil95 {fill:#6ABF68}
    .fil141 {fill:#59B0D7}
    .fil198 {fill:#7B58A3}
    .fil94 {fill:#69BE65}
    .fil93 {fill:#6ABE61}
    .fil86 {fill:#6CBE4F}
    .fil92 {fill:#69BE5E}
    .fil91 {fill:#69BE5B}
    .fil90 {fill:#6ABE58}
    .fil142 {fill:#58AED6}
    .fil89 {fill:#69BD55}
    .fil88 {fill:#69BD53}
    .fil87 {fill:#69BD51}
    .fil143 {fill:#56ABD5}
    .fil197 {fill:#7858A3}
    .fil144 {fill:#55A8D3}
    .fil145 {fill:#54A6D2}
    .fil196 {fill:#7558A3}
    .fil146 {fill:#53A3D1}
    .fil147 {fill:#53A0CF}
    .fil195 {fill:#7358A3}
    .fil148 {fill:#519DCD}
    .fil194 {fill:#7058A3}
    .fil149 {fill:#4F9BCC}
    .fil150 {fill:#4F98CA}
    .fil193 {fill:#6D58A3}
    .fil151 {fill:#4D96C9}
    .fil152 {fill:#4D93C7}
    .fil192 {fill:#6A58A3}
    .fil153 {fill:#4C91C5}
    .fil154 {fill:#4B8EC4}
    .fil191 {fill:#6659A4}
    .fil155 {fill:#4B8BC2}
    .fil156 {fill:#4A89C1}
    .fil190 {fill:#6358A4}
    .fil157 {fill:#4987C0}
    .fil158 {fill:#4884BE}
    .fil189 {fill:#6058A4}
    .fil159 {fill:#4782BD}
    .fil160 {fill:#4780BB}
    .fil188 {fill:#5D59A4}
    .fil161 {fill:#467DBA}
    .fil162 {fill:#457BB9}
    .fil187 {fill:#5A59A4}
    .fil163 {fill:#4479B8}
    .fil164 {fill:#4477B6}
    .fil186 {fill:#5758A4}
    .fil165 {fill:#4375B5}
    .fil166 {fill:#4373B4}
    .fil185 {fill:#5359A5}
    .fil167 {fill:#4271B2}
    .fil168 {fill:#416FB1}
    .fil184 {fill:#5059A5}
    .fil169 {fill:#3F6CB0}
    .fil183 {fill:#4C59A5}
    .fil170 {fill:#3E6BAF}
    .fil171 {fill:#3D69AE}
    .fil182 {fill:#4859A5}
    .fil172 {fill:#3D66AC}
    .fil173 {fill:#3C64AC}
    .fil181 {fill:#4459A5}
    .fil174 {fill:#3C63AA}
    .fil175 {fill:#3C60AA}
    .fil180 {fill:#4159A5}
    .fil176 {fill:#3B5EA8}
    .fil177 {fill:#3B5CA7}
    .fil179 {fill:#3C59A6}
    .fil178 {fill:#3A5AA6}
    .fil257 {fill:#FEFEFE}
    .fil258 {fill:#FEFEFE}
    .fil265 {fill:#96989A}
    .fil261 {fill:#848688}
    .fil263 {fill:#727376}
    .fil262 {fill:#606062}
    .fil264 {fill:#4B4B4D}
    .fil0 {fill:#373435}
    .fil268 {fill:#FEFEFE;fill-rule:nonzero}
    .fil267 {fill:#373435;fill-rule:nonzero}
   ]]>
  </style><clipPath
     id="id0">
     <path
   d="m 778.8,743.07 c 41.33,0 74.83,33.5 74.83,74.83 0,41.33 -33.5,74.83 -74.83,74.83 -41.33,0 -74.83,-33.5 -74.83,-74.83 0,-41.33 33.5,-74.83 74.83,-74.83 z"
   id="path1" />
    </clipPath><mask
     id="id1">
  <radialGradient
   id="id2"
   gradientUnits="userSpaceOnUse"
   cx="703.96997"
   cy="743.07001"
   r="0"
   fx="703.96997"
   fy="743.07001">
   <stop
   offset="0"
   style="stop-opacity:1; stop-color:white"
   id="stop1" />
   <stop
   offset="1"
   style="stop-opacity:0; stop-color:white"
   id="stop2" />
  </radialGradient>
    <rect
   style="fill:url(#id2)"
   x="703.46997"
   y="742.57001"
   width="150.66"
   height="150.66"
   id="rect2" />
   </mask><mask
     id="id4">
  <radialGradient
   id="id5"
   gradientUnits="userSpaceOnUse"
   cx="703.96997"
   cy="996.51001"
   r="0"
   fx="703.96997"
   fy="996.51001">
   <stop
   offset="0"
   style="stop-opacity:1; stop-color:white"
   id="stop3" />
   <stop
   offset="1"
   style="stop-opacity:0; stop-color:white"
   id="stop4" />
  </radialGradient>
    <rect
   style="fill:url(#id5)"
   x="703.46997"
   y="996.01001"
   width="150.66"
   height="150.66"
   id="rect4" />
   </mask><mask
     id="id7">
  <radialGradient
   id="id8"
   gradientUnits="userSpaceOnUse"
   cx="703.96997"
   cy="364.92999"
   r="0"
   fx="703.96997"
   fy="364.92999">
   <stop
   offset="0"
   style="stop-opacity:1; stop-color:white"
   id="stop5" />
   <stop
   offset="1"
   style="stop-opacity:0; stop-color:white"
   id="stop6" />
  </radialGradient>
    <rect
   style="fill:url(#id8)"
   x="703.46997"
   y="364.42999"
   width="150.66"
   height="150.66"
   id="rect6" />
   </mask><mask
     id="id10">
  <radialGradient
   id="id11"
   gradientUnits="userSpaceOnUse"
   cx="703.96997"
   cy="46.240002"
   r="0"
   fx="703.96997"
   fy="46.240002">
   <stop
   offset="0"
   style="stop-opacity:1; stop-color:white"
   id="stop7" />
   <stop
   offset="1"
   style="stop-opacity:0; stop-color:white"
   id="stop8" />
  </radialGradient>
    <rect
   style="fill:url(#id11)"
   x="703.46997"
   y="45.75"
   width="150.66"
   height="150.66"
   id="rect8" />
   </mask><mask
     id="id13">
  <radialGradient
   id="id14"
   gradientUnits="userSpaceOnUse"
   cx="347.26999"
   cy="397.54999"
   r="0"
   fx="347.26999"
   fy="397.54999">
   <stop
   offset="0"
   style="stop-opacity:1; stop-color:white"
   id="stop9" />
   <stop
   offset="1"
   style="stop-opacity:0; stop-color:white"
   id="stop10" />
  </radialGradient>
     <rect
   style="fill:url(#id14)"
   x="346.76999"
   y="397.04999"
   width="93.489998"
   height="93.489998"
   id="rect10" />
    </mask><mask
     id="id16">
  <radialGradient
   id="id17"
   gradientUnits="userSpaceOnUse"
   cx="28.58"
   cy="397.54999"
   r="0"
   fx="28.58"
   fy="397.54999">
   <stop
   offset="0"
   style="stop-opacity:1; stop-color:white"
   id="stop11" />
   <stop
   offset="1"
   style="stop-opacity:0; stop-color:white"
   id="stop12" />
  </radialGradient>
     <rect
   style="fill:url(#id17)"
   x="28.09"
   y="397.04999"
   width="93.489998"
   height="93.489998"
   id="rect12" />
    </mask><radialGradient
     xlink:href="#linearGradient119"
     id="radialGradient120-7-7"
     cx="778.79999"
     cy="439.75998"
     fx="778.79999"
     fy="439.75998"
     r="74.832008"
     gradientUnits="userSpaceOnUse"
     gradientTransform="translate(-0.0019131,378.14006)" /></defs>
 <g
   id="g125"
   transform="translate(-657.72005,-696.82305)"><path
     class="fil0"
     d="m 707.61,696.82 h 142.38 c 27.44,0 49.89,22.45 49.89,49.89 v 142.38 c 0,27.44 -22.45,49.89 -49.89,49.89 H 707.61 c -27.44,0 -49.89,-22.45 -49.89,-49.89 V 746.71 c 0,-27.44 22.45,-49.89 49.89,-49.89 z"
     id="path12"
     style="clip-rule:evenodd;fill-rule:evenodd;image-rendering:optimizeQuality;shape-rendering:geometricPrecision;text-rendering:geometricPrecision" /><g
     id="g124"><g
       id="g13"
       style="clip-rule:evenodd;fill-rule:evenodd;image-rendering:optimizeQuality;shape-rendering:geometricPrecision;text-rendering:geometricPrecision">
   <g
   clip-path="url(#id0)"
   id="g12">
    <polygon
   class="fil1"
   points="778.8,817.9 672.95,817.25 673.05,813.35 "
   id="polygon12" />
    <polygon
   id="_1"
   class="fil2"
   points="778.8,817.9 673.03,814 673.19,810.76 " />
    <polygon
   id="_2"
   class="fil3"
   points="778.8,817.9 673.16,811.41 673.4,808.17 " />
    <polygon
   id="_3"
   class="fil4"
   points="778.8,817.9 673.35,808.82 673.67,805.59 " />
    <polygon
   id="_4"
   class="fil5"
   points="778.8,817.9 673.61,806.23 674,803.01 " />
    <polygon
   id="_5"
   class="fil6"
   points="778.8,817.9 673.93,803.65 674.4,800.44 " />
    <polygon
   id="_6"
   class="fil7"
   points="778.8,817.9 674.31,801.08 674.86,797.89 " />
    <polygon
   id="_7"
   class="fil8"
   points="778.8,817.9 674.75,798.52 675.38,795.34 " />
    <polygon
   id="_8"
   class="fil9"
   points="778.8,817.9 675.26,795.98 675.97,792.81 " />
    <polygon
   id="_9"
   class="fil10"
   points="778.8,817.9 675.83,793.44 676.62,790.29 " />
    <polygon
   id="_10"
   class="fil11"
   points="778.8,817.9 676.46,790.92 677.32,787.79 " />
    <polygon
   id="_11"
   class="fil12"
   points="778.8,817.9 677.15,788.42 678.09,785.31 " />
    <polygon
   id="_12"
   class="fil13"
   points="778.8,817.9 677.9,785.93 678.92,782.85 " />
    <polygon
   id="_13"
   class="fil14"
   points="778.8,817.9 678.72,783.47 679.81,780.41 " />
    <polygon
   id="_14"
   class="fil15"
   points="778.8,817.9 679.59,781.02 680.76,777.99 " />
    <polygon
   id="_15"
   class="fil16"
   points="778.8,817.9 680.53,778.6 681.77,775.6 " />
    <polygon
   id="_16"
   class="fil17"
   points="778.8,817.9 681.52,776.2 682.84,773.23 " />
    <polygon
   id="_17"
   class="fil18"
   points="778.8,817.9 682.58,773.82 683.96,770.89 " />
    <polygon
   id="_18"
   class="fil19"
   points="778.8,817.9 683.69,771.48 685.15,768.58 " />
    <polygon
   id="_19"
   class="fil20"
   points="778.8,817.9 684.85,769.16 686.38,766.29 " />
    <polygon
   id="_20"
   class="fil21"
   points="778.8,817.9 686.08,766.87 687.68,764.04 " />
    <polygon
   id="_21"
   class="fil22"
   points="778.8,817.9 687.36,764.61 689.03,761.82 " />
    <polygon
   id="_22"
   class="fil23"
   points="778.8,817.9 688.69,762.38 690.43,759.63 " />
    <polygon
   id="_23"
   class="fil24"
   points="778.8,817.9 690.08,760.18 691.89,757.48 " />
    <polygon
   id="_24"
   class="fil25"
   points="778.8,817.9 691.53,758.02 693.4,755.37 " />
    <polygon
   id="_25"
   class="fil26"
   points="778.8,817.9 693.02,755.9 694.96,753.29 " />
    <polygon
   id="_26"
   class="fil27"
   points="778.8,817.9 694.57,753.81 696.57,751.25 " />
    <polygon
   id="_27"
   class="fil28"
   points="778.8,817.9 696.17,751.77 698.23,749.26 " />
    <polygon
   id="_28"
   class="fil29"
   points="778.8,817.9 697.82,749.76 699.94,747.3 " />
    <polygon
   id="_29"
   class="fil30"
   points="778.8,817.9 699.51,747.79 701.69,745.39 " />
    <polygon
   id="_30"
   class="fil31"
   points="778.8,817.9 701.26,745.87 703.5,743.51 " />
    <polygon
   id="_31"
   class="fil32"
   points="778.8,817.9 703.05,743.99 705.34,741.69 " />
    <polygon
   id="_32"
   class="fil33"
   points="778.8,817.9 704.88,742.15 707.24,739.91 " />
    <polygon
   id="_33"
   class="fil34"
   points="778.8,817.9 706.77,740.36 709.17,738.18 " />
    <polygon
   id="_34"
   class="fil35"
   points="778.8,817.9 708.69,738.61 711.15,736.49 " />
    <polygon
   id="_35"
   class="fil36"
   points="778.8,817.9 710.66,736.92 713.17,734.86 " />
    <polygon
   id="_36"
   class="fil37"
   points="778.8,817.9 712.66,735.27 715.22,733.27 " />
    <polygon
   id="_37"
   class="fil38"
   points="778.8,817.9 714.71,733.67 717.32,731.74 " />
    <polygon
   id="_38"
   class="fil39"
   points="778.8,817.9 716.8,732.12 719.45,730.25 " />
    <polygon
   id="_39"
   class="fil40"
   points="778.8,817.9 718.92,730.63 721.62,728.82 " />
    <polygon
   id="_40"
   class="fil41"
   points="778.8,817.9 721.08,729.18 723.83,727.45 " />
    <polygon
   id="_41"
   class="fil42"
   points="778.8,817.9 723.28,727.8 726.06,726.13 " />
    <polygon
   id="_42"
   class="fil43"
   points="778.8,817.9 725.5,726.46 728.33,724.86 " />
    <polygon
   id="_43"
   class="fil44"
   points="778.8,817.9 727.76,725.18 730.63,723.65 " />
    <polygon
   id="_44"
   class="fil45"
   points="778.8,817.9 730.06,723.95 732.96,722.5 " />
    <polygon
   id="_45"
   class="fil46"
   points="778.8,817.9 732.38,722.79 735.31,721.4 " />
    <polygon
   id="_46"
   class="fil47"
   points="778.8,817.9 734.72,721.68 737.69,720.36 " />
    <polygon
   id="_47"
   class="fil48"
   points="778.8,817.9 737.1,720.62 740.1,719.38 " />
    <polygon
   id="_48"
   class="fil49"
   points="778.8,817.9 739.5,719.63 742.53,718.46 " />
    <polygon
   id="_49"
   class="fil50"
   points="778.8,817.9 741.92,718.69 744.98,717.6 " />
    <polygon
   id="_50"
   class="fil51"
   points="778.8,817.9 744.37,717.82 747.45,716.8 " />
    <polygon
   id="_51"
   class="fil52"
   points="778.8,817.9 746.83,717.01 749.94,716.06 " />
    <polygon
   id="_52"
   class="fil53"
   points="778.8,817.9 749.32,716.25 752.45,715.39 " />
    <polygon
   id="_53"
   class="fil54"
   points="778.8,817.9 751.82,715.56 754.97,714.77 " />
    <polygon
   id="_54"
   class="fil55"
   points="778.8,817.9 754.34,714.93 757.51,714.22 " />
    <polygon
   id="_55"
   class="fil56"
   points="778.8,817.9 756.88,714.36 760.06,713.72 " />
    <polygon
   id="_56"
   class="fil57"
   points="778.8,817.9 759.42,713.85 762.62,713.3 " />
    <polygon
   id="_57"
   class="fil58"
   points="778.8,817.9 761.98,713.41 765.2,712.93 " />
    <polygon
   id="_58"
   class="fil59"
   points="778.8,817.9 764.55,713.03 767.78,712.63 " />
    <polygon
   id="_59"
   class="fil60"
   points="778.8,817.9 767.13,712.71 770.36,712.39 " />
    <polygon
   id="_60"
   class="fil61"
   points="778.8,817.9 769.72,712.45 772.95,712.21 " />
    <polygon
   id="_61"
   class="fil62"
   points="778.8,817.9 772.31,712.26 775.55,712.1 " />
    <polygon
   id="_62"
   class="fil63"
   points="778.8,817.9 774.9,712.14 778.15,712.06 " />
    <polygon
   id="_63"
   class="fil64"
   points="778.8,817.9 777.5,712.07 780.74,712.07 " />
    <polygon
   id="_64"
   class="fil65"
   points="778.8,817.9 780.09,712.07 783.34,712.15 " />
    <polygon
   id="_65"
   class="fil66"
   points="778.8,817.9 782.69,712.14 785.93,712.29 " />
    <polygon
   id="_66"
   class="fil67"
   points="778.8,817.9 785.29,712.26 788.52,712.5 " />
    <polygon
   id="_67"
   class="fil68"
   points="778.8,817.9 787.88,712.45 791.11,712.77 " />
    <polygon
   id="_68"
   class="fil69"
   points="778.8,817.9 790.46,712.71 793.68,713.11 " />
    <polygon
   id="_69"
   class="fil70"
   points="778.8,817.9 793.04,713.03 796.25,713.5 " />
    <polygon
   id="_70"
   class="fil71"
   points="778.8,817.9 795.61,713.41 798.81,713.96 " />
    <polygon
   id="_71"
   class="fil72"
   points="778.8,817.9 798.17,713.85 801.35,714.48 " />
    <polygon
   id="_72"
   class="fil73"
   points="778.8,817.9 800.71,714.36 803.88,715.07 " />
    <polygon
   id="_73"
   class="fil74"
   points="778.8,817.9 803.25,714.93 806.4,715.72 " />
    <polygon
   id="_74"
   class="fil75"
   points="778.8,817.9 805.77,715.56 808.9,716.42 " />
    <polygon
   id="_75"
   class="fil76"
   points="778.8,817.9 808.27,716.25 811.38,717.19 " />
    <polygon
   id="_76"
   class="fil77"
   points="778.8,817.9 810.76,717.01 813.84,718.02 " />
    <polygon
   id="_77"
   class="fil78"
   points="778.8,817.9 813.22,717.82 816.28,718.91 " />
    <polygon
   id="_78"
   class="fil79"
   points="778.8,817.9 815.67,718.69 818.7,719.86 " />
    <polygon
   id="_79"
   class="fil80"
   points="778.8,817.9 818.09,719.63 821.09,720.87 " />
    <polygon
   id="_80"
   class="fil81"
   points="778.8,817.9 820.49,720.62 823.46,721.94 " />
    <polygon
   id="_81"
   class="fil82"
   points="778.8,817.9 822.87,721.68 825.8,723.06 " />
    <polygon
   id="_82"
   class="fil83"
   points="778.8,817.9 825.22,722.79 828.12,724.25 " />
    <polygon
   id="_83"
   class="fil84"
   points="778.8,817.9 827.54,723.95 830.4,725.49 " />
    <polygon
   id="_84"
   class="fil85"
   points="778.8,817.9 829.83,725.18 832.65,726.78 " />
    <polygon
   id="_85"
   class="fil86"
   points="778.8,817.9 832.09,726.46 834.87,728.13 " />
    <polygon
   id="_86"
   class="fil87"
   points="778.8,817.9 834.31,727.8 837.06,729.53 " />
    <polygon
   id="_87"
   class="fil88"
   points="778.8,817.9 836.51,729.18 839.21,730.99 " />
    <polygon
   id="_88"
   class="fil89"
   points="778.8,817.9 838.67,730.63 841.32,732.5 " />
    <polygon
   id="_89"
   class="fil90"
   points="778.8,817.9 840.79,732.12 843.4,734.06 " />
    <polygon
   id="_90"
   class="fil91"
   points="778.8,817.9 842.88,733.67 845.44,735.67 " />
    <polygon
   id="_91"
   class="fil92"
   points="778.8,817.9 844.93,735.27 847.44,737.33 " />
    <polygon
   id="_92"
   class="fil93"
   points="778.8,817.9 846.93,736.92 849.39,739.04 " />
    <polygon
   id="_93"
   class="fil94"
   points="778.8,817.9 848.9,738.61 851.31,740.79 " />
    <polygon
   id="_94"
   class="fil95"
   points="778.8,817.9 850.83,740.36 853.18,742.6 " />
    <polygon
   id="_95"
   class="fil96"
   points="778.8,817.9 852.71,742.15 855,744.44 " />
    <polygon
   id="_96"
   class="fil97"
   points="778.8,817.9 854.54,743.99 856.78,746.34 " />
    <polygon
   id="_97"
   class="fil98"
   points="778.8,817.9 856.33,745.87 858.52,748.27 " />
    <polygon
   id="_98"
   class="fil99"
   points="778.8,817.9 858.08,747.79 860.2,750.25 " />
    <polygon
   id="_99"
   class="fil100"
   points="778.8,817.9 859.78,749.76 861.84,752.27 " />
    <polygon
   id="_100"
   class="fil101"
   points="778.8,817.9 861.42,751.77 863.42,754.33 " />
    <polygon
   id="_101"
   class="fil102"
   points="778.8,817.9 863.02,753.81 864.96,756.42 " />
    <polygon
   id="_102"
   class="fil103"
   points="778.8,817.9 864.57,755.9 866.44,758.55 " />
    <polygon
   id="_103"
   class="fil104"
   points="778.8,817.9 866.06,758.02 867.87,760.72 " />
    <polygon
   id="_104"
   class="fil105"
   points="778.8,817.9 867.51,760.18 869.24,762.93 " />
    <polygon
   id="_105"
   class="fil106"
   points="778.8,817.9 868.9,762.38 870.57,765.16 " />
    <polygon
   id="_106"
   class="fil107"
   points="778.8,817.9 870.23,764.61 871.83,767.43 " />
    <polygon
   id="_107"
   class="fil108"
   points="778.8,817.9 871.51,766.87 873.04,769.73 " />
    <polygon
   id="_108"
   class="fil109"
   points="778.8,817.9 872.74,769.16 874.2,772.06 " />
    <polygon
   id="_109"
   class="fil110"
   points="778.8,817.9 873.91,771.48 875.29,774.41 " />
    <polygon
   id="_110"
   class="fil111"
   points="778.8,817.9 875.02,773.82 876.33,776.79 " />
    <polygon
   id="_111"
   class="fil112"
   points="778.8,817.9 876.07,776.2 877.31,779.2 " />
    <polygon
   id="_112"
   class="fil113"
   points="778.8,817.9 877.06,778.6 878.23,781.63 " />
    <polygon
   id="_113"
   class="fil114"
   points="778.8,817.9 878,781.02 879.09,784.08 " />
    <polygon
   id="_114"
   class="fil115"
   points="778.8,817.9 878.87,783.47 879.89,786.55 " />
    <polygon
   id="_115"
   class="fil116"
   points="778.8,817.9 879.69,785.93 880.63,789.04 " />
    <polygon
   id="_116"
   class="fil117"
   points="778.8,817.9 880.44,788.42 881.31,791.55 " />
    <polygon
   id="_117"
   class="fil118"
   points="778.8,817.9 881.13,790.92 881.92,794.07 " />
    <polygon
   id="_118"
   class="fil119"
   points="778.8,817.9 881.76,793.44 882.48,796.61 " />
    <polygon
   id="_119"
   class="fil120"
   points="778.8,817.9 882.33,795.98 882.97,799.16 " />
    <polygon
   id="_120"
   class="fil121"
   points="778.8,817.9 882.84,798.52 883.4,801.72 " />
    <polygon
   id="_121"
   class="fil122"
   points="778.8,817.9 883.28,801.08 883.76,804.3 " />
    <polygon
   id="_122"
   class="fil123"
   points="778.8,817.9 883.67,803.65 884.06,806.88 " />
    <polygon
   id="_123"
   class="fil124"
   points="778.8,817.9 883.98,806.23 884.3,809.46 " />
    <polygon
   id="_124"
   class="fil125"
   points="778.8,817.9 884.24,808.82 884.48,812.05 " />
    <polygon
   id="_125"
   class="fil126"
   points="778.8,817.9 884.43,811.41 884.59,814.65 " />
    <polygon
   id="_126"
   class="fil127"
   points="778.8,817.9 884.56,814 884.64,817.25 " />
    <polygon
   id="_127"
   class="fil128"
   points="778.8,817.9 884.62,816.6 884.62,819.84 " />
    <polygon
   id="_128"
   class="fil129"
   points="778.8,817.9 884.62,819.2 884.54,822.44 " />
    <polygon
   id="_129"
   class="fil130"
   points="778.8,817.9 884.56,821.79 884.4,825.03 " />
    <polygon
   id="_130"
   class="fil131"
   points="778.8,817.9 884.43,824.39 884.19,827.62 " />
    <polygon
   id="_131"
   class="fil132"
   points="778.8,817.9 884.24,826.98 883.92,830.21 " />
    <polygon
   id="_132"
   class="fil133"
   points="778.8,817.9 883.98,829.56 883.59,832.78 " />
    <polygon
   id="_133"
   class="fil134"
   points="778.8,817.9 883.67,832.14 883.19,835.35 " />
    <polygon
   id="_134"
   class="fil135"
   points="778.8,817.9 883.28,834.71 882.73,837.91 " />
    <polygon
   id="_135"
   class="fil136"
   points="778.8,817.9 882.84,837.27 882.21,840.45 " />
    <polygon
   id="_136"
   class="fil137"
   points="778.8,817.9 882.33,839.82 881.62,842.98 " />
    <polygon
   id="_137"
   class="fil138"
   points="778.8,817.9 881.76,842.35 880.98,845.5 " />
    <polygon
   id="_138"
   class="fil139"
   points="778.8,817.9 881.13,844.87 880.27,848 " />
    <polygon
   id="_139"
   class="fil140"
   points="778.8,817.9 880.44,847.37 879.5,850.48 " />
    <polygon
   id="_140"
   class="fil141"
   points="778.8,817.9 879.69,849.86 878.67,852.94 " />
    <polygon
   id="_141"
   class="fil142"
   points="778.8,817.9 878.87,852.33 877.78,855.38 " />
    <polygon
   id="_142"
   class="fil143"
   points="778.8,817.9 878,854.77 876.83,857.8 " />
    <polygon
   id="_143"
   class="fil144"
   points="778.8,817.9 877.06,857.19 875.82,860.19 " />
    <polygon
   id="_144"
   class="fil145"
   points="778.8,817.9 876.07,859.59 874.75,862.56 " />
    <polygon
   id="_145"
   class="fil146"
   points="778.8,817.9 875.02,861.97 873.63,864.9 " />
    <polygon
   id="_146"
   class="fil147"
   points="778.8,817.9 873.91,864.32 872.45,867.22 " />
    <polygon
   id="_147"
   class="fil148"
   points="778.8,817.9 872.74,866.64 871.21,869.5 " />
    <polygon
   id="_148"
   class="fil149"
   points="778.8,817.9 871.51,868.93 869.91,871.75 " />
    <polygon
   id="_149"
   class="fil150"
   points="778.8,817.9 870.23,871.19 868.56,873.97 " />
    <polygon
   id="_150"
   class="fil151"
   points="778.8,817.9 868.9,873.42 867.16,876.16 " />
    <polygon
   id="_151"
   class="fil152"
   points="778.8,817.9 867.51,875.61 865.7,878.31 " />
    <polygon
   id="_152"
   class="fil153"
   points="778.8,817.9 866.06,877.77 864.19,880.42 " />
    <polygon
   id="_153"
   class="fil154"
   points="778.8,817.9 864.57,879.89 862.63,882.5 " />
    <polygon
   id="_154"
   class="fil155"
   points="778.8,817.9 863.02,881.98 861.02,884.54 " />
    <polygon
   id="_155"
   class="fil156"
   points="778.8,817.9 861.42,884.03 859.36,886.54 " />
    <polygon
   id="_156"
   class="fil157"
   points="778.8,817.9 859.78,886.04 857.65,888.49 " />
    <polygon
   id="_157"
   class="fil158"
   points="778.8,817.9 858.08,888 855.9,890.41 " />
    <polygon
   id="_158"
   class="fil159"
   points="778.8,817.9 856.33,889.93 854.1,892.28 " />
    <polygon
   id="_159"
   class="fil160"
   points="778.8,817.9 854.54,891.81 852.25,894.1 " />
    <polygon
   id="_160"
   class="fil161"
   points="778.8,817.9 852.71,893.64 850.36,895.88 " />
    <polygon
   id="_161"
   class="fil162"
   points="778.8,817.9 850.83,895.44 848.42,897.62 " />
    <polygon
   id="_162"
   class="fil163"
   points="778.8,817.9 848.9,897.18 846.44,899.3 " />
    <polygon
   id="_163"
   class="fil164"
   points="778.8,817.9 846.93,898.88 844.42,900.94 " />
    <polygon
   id="_164"
   class="fil165"
   points="778.8,817.9 844.93,900.52 842.37,902.52 " />
    <polygon
   id="_165"
   class="fil166"
   points="778.8,817.9 842.88,902.12 840.27,904.06 " />
    <polygon
   id="_166"
   class="fil167"
   points="778.8,817.9 840.79,903.67 838.14,905.54 " />
    <polygon
   id="_167"
   class="fil168"
   points="778.8,817.9 838.67,905.17 835.97,906.97 " />
    <polygon
   id="_168"
   class="fil169"
   points="778.8,817.9 836.51,906.61 833.77,908.35 " />
    <polygon
   id="_169"
   class="fil170"
   points="778.8,817.9 834.31,908 831.53,909.67 " />
    <polygon
   id="_170"
   class="fil171"
   points="778.8,817.9 832.09,909.33 829.26,910.93 " />
    <polygon
   id="_171"
   class="fil172"
   points="778.8,817.9 829.83,910.61 826.96,912.14 " />
    <polygon
   id="_172"
   class="fil173"
   points="778.8,817.9 827.54,911.84 824.64,913.3 " />
    <polygon
   id="_173"
   class="fil174"
   points="778.8,817.9 825.22,913.01 822.28,914.39 " />
    <polygon
   id="_174"
   class="fil175"
   points="778.8,817.9 822.87,914.12 819.9,915.43 " />
    <polygon
   id="_175"
   class="fil176"
   points="778.8,817.9 820.49,915.17 817.49,916.41 " />
    <polygon
   id="_176"
   class="fil177"
   points="778.8,817.9 818.09,916.16 815.06,917.33 " />
    <polygon
   id="_177"
   class="fil178"
   points="778.8,817.9 815.67,917.1 812.61,918.19 " />
    <polygon
   id="_178"
   class="fil179"
   points="778.8,817.9 813.22,917.97 810.14,918.99 " />
    <polygon
   id="_179"
   class="fil180"
   points="778.8,817.9 810.76,918.79 807.65,919.73 " />
    <polygon
   id="_180"
   class="fil181"
   points="778.8,817.9 808.27,919.54 805.14,920.41 " />
    <polygon
   id="_181"
   class="fil182"
   points="778.8,817.9 805.77,920.23 802.62,921.02 " />
    <polygon
   id="_182"
   class="fil183"
   points="778.8,817.9 803.25,920.87 800.08,921.58 " />
    <polygon
   id="_183"
   class="fil184"
   points="778.8,817.9 800.71,921.44 797.53,922.07 " />
    <polygon
   id="_184"
   class="fil185"
   points="778.8,817.9 798.17,921.94 794.97,922.5 " />
    <polygon
   id="_185"
   class="fil186"
   points="778.8,817.9 795.61,922.39 792.4,922.86 " />
    <polygon
   id="_186"
   class="fil187"
   points="778.8,817.9 793.04,922.77 789.82,923.16 " />
    <polygon
   id="_187"
   class="fil188"
   points="778.8,817.9 790.46,923.08 787.23,923.4 " />
    <polygon
   id="_188"
   class="fil189"
   points="778.8,817.9 787.88,923.34 784.64,923.58 " />
    <polygon
   id="_189"
   class="fil190"
   points="778.8,817.9 785.29,923.53 782.04,923.69 " />
    <polygon
   id="_190"
   class="fil191"
   points="778.8,817.9 782.69,923.66 779.45,923.74 " />
    <polygon
   id="_191"
   class="fil192"
   points="778.8,817.9 780.09,923.72 776.85,923.72 " />
    <polygon
   id="_192"
   class="fil193"
   points="778.8,817.9 777.5,923.72 774.25,923.64 " />
    <polygon
   id="_193"
   class="fil194"
   points="778.8,817.9 774.9,923.66 771.66,923.5 " />
    <polygon
   id="_194"
   class="fil195"
   points="778.8,817.9 772.31,923.53 769.07,923.29 " />
    <polygon
   id="_195"
   class="fil196"
   points="778.8,817.9 769.72,923.34 766.48,923.02 " />
    <polygon
   id="_196"
   class="fil197"
   points="778.8,817.9 767.13,923.08 763.91,922.69 " />
    <polygon
   id="_197"
   class="fil198"
   points="778.8,817.9 764.55,922.77 761.34,922.29 " />
    <polygon
   id="_198"
   class="fil199"
   points="778.8,817.9 761.98,922.39 758.78,921.83 " />
    <polygon
   id="_199"
   class="fil200"
   points="778.8,817.9 759.42,921.94 756.24,921.31 " />
    <polygon
   id="_200"
   class="fil201"
   points="778.8,817.9 756.88,921.44 753.71,920.72 " />
    <polygon
   id="_201"
   class="fil202"
   points="778.8,817.9 754.34,920.87 751.19,920.08 " />
    <polygon
   id="_202"
   class="fil203"
   points="778.8,817.9 751.82,920.23 748.69,919.37 " />
    <polygon
   id="_203"
   class="fil204"
   points="778.8,817.9 749.32,919.54 746.21,918.6 " />
    <polygon
   id="_204"
   class="fil205"
   points="778.8,817.9 746.83,918.79 743.75,917.77 " />
    <polygon
   id="_205"
   class="fil206"
   points="778.8,817.9 744.37,917.97 741.31,916.88 " />
    <polygon
   id="_206"
   class="fil207"
   points="778.8,817.9 741.92,917.1 738.89,915.93 " />
    <polygon
   id="_207"
   class="fil208"
   points="778.8,817.9 739.5,916.16 736.5,914.92 " />
    <polygon
   id="_208"
   class="fil209"
   points="778.8,817.9 737.1,915.17 734.13,913.85 " />
    <polygon
   id="_209"
   class="fil210"
   points="778.8,817.9 734.72,914.12 731.79,912.73 " />
    <polygon
   id="_210"
   class="fil211"
   points="778.8,817.9 732.38,913.01 729.48,911.55 " />
    <polygon
   id="_211"
   class="fil212"
   points="778.8,817.9 730.06,911.84 727.19,910.31 " />
    <polygon
   id="_212"
   class="fil213"
   points="778.8,817.9 727.76,910.61 724.94,909.01 " />
    <polygon
   id="_213"
   class="fil214"
   points="778.8,817.9 725.5,909.33 722.72,907.66 " />
    <polygon
   id="_214"
   class="fil215"
   points="778.8,817.9 723.28,908 720.53,906.26 " />
    <polygon
   id="_215"
   class="fil216"
   points="778.8,817.9 721.08,906.61 718.38,904.8 " />
    <polygon
   id="_216"
   class="fil217"
   points="778.8,817.9 718.92,905.17 716.27,903.3 " />
    <polygon
   id="_217"
   class="fil218"
   points="778.8,817.9 716.8,903.67 714.19,901.74 " />
    <polygon
   id="_218"
   class="fil219"
   points="778.8,817.9 714.71,902.12 712.15,900.13 " />
    <polygon
   id="_219"
   class="fil220"
   points="778.8,817.9 712.66,900.52 710.15,898.46 " />
    <polygon
   id="_220"
   class="fil221"
   points="778.8,817.9 710.66,898.88 708.2,896.76 " />
    <polygon
   id="_221"
   class="fil222"
   points="778.8,817.9 708.69,897.18 706.28,895 " />
    <polygon
   id="_222"
   class="fil223"
   points="778.8,817.9 706.77,895.44 704.41,893.2 " />
    <polygon
   id="_223"
   class="fil224"
   points="778.8,817.9 704.88,893.64 702.59,891.35 " />
    <polygon
   id="_224"
   class="fil225"
   points="778.8,817.9 703.05,891.81 700.81,889.46 " />
    <polygon
   id="_225"
   class="fil226"
   points="778.8,817.9 701.26,889.93 699.08,887.52 " />
    <polygon
   id="_226"
   class="fil227"
   points="778.8,817.9 699.51,888 697.39,885.54 " />
    <polygon
   id="_227"
   class="fil228"
   points="778.8,817.9 697.82,886.04 695.76,883.53 " />
    <polygon
   id="_228"
   class="fil229"
   points="778.8,817.9 696.17,884.03 694.17,881.47 " />
    <polygon
   id="_229"
   class="fil230"
   points="778.8,817.9 694.57,881.98 692.64,879.37 " />
    <polygon
   id="_230"
   class="fil231"
   points="778.8,817.9 693.02,879.89 691.15,877.24 " />
    <polygon
   id="_231"
   class="fil232"
   points="778.8,817.9 691.53,877.77 689.72,875.07 " />
    <polygon
   id="_232"
   class="fil233"
   points="778.8,817.9 690.08,875.61 688.35,872.87 " />
    <polygon
   id="_233"
   class="fil234"
   points="778.8,817.9 688.69,873.42 687.02,870.63 " />
    <polygon
   id="_234"
   class="fil235"
   points="778.8,817.9 687.36,871.19 685.76,868.36 " />
    <polygon
   id="_235"
   class="fil236"
   points="778.8,817.9 686.08,868.93 684.55,866.06 " />
    <polygon
   id="_236"
   class="fil237"
   points="778.8,817.9 684.85,866.64 683.39,863.74 " />
    <polygon
   id="_237"
   class="fil238"
   points="778.8,817.9 683.69,864.32 682.3,861.38 " />
    <polygon
   id="_238"
   class="fil239"
   points="778.8,817.9 682.58,861.97 681.26,859 " />
    <polygon
   id="_239"
   class="fil240"
   points="778.8,817.9 681.52,859.59 680.28,856.59 " />
    <polygon
   id="_240"
   class="fil241"
   points="778.8,817.9 680.53,857.19 679.36,854.17 " />
    <polygon
   id="_241"
   class="fil242"
   points="778.8,817.9 679.59,854.77 678.5,851.71 " />
    <polygon
   id="_242"
   class="fil243"
   points="778.8,817.9 678.72,852.33 677.7,849.24 " />
    <polygon
   id="_243"
   class="fil244"
   points="778.8,817.9 677.9,849.86 676.96,846.75 " />
    <polygon
   id="_244"
   class="fil245"
   points="778.8,817.9 677.15,847.37 676.28,844.24 " />
    <polygon
   id="_245"
   class="fil246"
   points="778.8,817.9 676.46,844.87 675.67,841.72 " />
    <polygon
   id="_246"
   class="fil247"
   points="778.8,817.9 675.83,842.35 675.11,839.18 " />
    <polygon
   id="_247"
   class="fil248"
   points="778.8,817.9 675.26,839.82 674.62,836.63 " />
    <polygon
   id="_248"
   class="fil249"
   points="778.8,817.9 674.75,837.27 674.2,834.07 " />
    <polygon
   id="_249"
   class="fil250"
   points="778.8,817.9 674.31,834.71 673.83,831.5 " />
    <polygon
   id="_250"
   class="fil251"
   points="778.8,817.9 673.93,832.14 673.53,828.92 " />
    <polygon
   id="_251"
   class="fil252"
   points="778.8,817.9 673.61,829.56 673.29,826.33 " />
    <polygon
   id="_252"
   class="fil253"
   points="778.8,817.9 673.35,826.98 673.11,823.74 " />
    <polygon
   id="_253"
   class="fil254"
   points="778.8,817.9 673.16,824.39 673,821.14 " />
    <polygon
   id="_254"
   class="fil255"
   points="778.8,817.9 673.03,821.79 672.95,818.55 " />
    <polygon
   id="_255"
   class="fil255"
   points="778.8,817.9 672.97,819.2 672.97,816.6 " />
   </g>
  </g><path
       class="fil256"
       d="m 778.8,743.07 c 41.33,0 74.83,33.5 74.83,74.83 0,41.33 -33.5,74.83 -74.83,74.83 -41.33,0 -74.83,-33.5 -74.83,-74.83 0,-41.33 33.5,-74.83 74.83,-74.83 z"
       mask="url(#id1)"
       id="path13"
       style="clip-rule:evenodd;fill-rule:evenodd;image-rendering:optimizeQuality;shape-rendering:geometricPrecision;text-rendering:geometricPrecision" /></g><circle
     style="clip-rule:evenodd;mix-blend-mode:lighten;fill:url(#radialGradient120-7-7);fill-rule:evenodd;stroke-width:7.483;paint-order:markers fill stroke;image-rendering:optimizeQuality;shape-rendering:geometricPrecision;text-rendering:geometricPrecision"
     id="path119-2-2"
     cx="778.79797"
     cy="817.90002"
     r="74.832008" /><g
     id="g123"><polygon
       class="fil257"
       points="778.8,880.25 751.79,864.66 724.79,849.08 724.79,817.9 724.79,786.72 751.79,771.13 778.8,755.54 805.8,771.13 832.8,786.72 832.8,817.9 832.8,849.08 805.8,864.66 "
       id="polygon14"
       style="clip-rule:evenodd;fill:#fefefe;fill-opacity:0.25;fill-rule:evenodd;image-rendering:optimizeQuality;shape-rendering:geometricPrecision;text-rendering:geometricPrecision" /><polygon
       class="fil259"
       points="778.8,755.54 805.8,802.31 832.8,849.08 778.8,849.08 724.79,849.08 751.79,802.31 "
       id="polygon19"
       style="clip-rule:evenodd;fill-rule:evenodd;image-rendering:optimizeQuality;shape-rendering:geometricPrecision;text-rendering:geometricPrecision" /><polygon
       class="fil260"
       points="778.8,779.35 812.18,837.17 745.41,837.17 "
       id="polygon20"
       style="clip-rule:evenodd;fill-rule:evenodd;image-rendering:optimizeQuality;shape-rendering:geometricPrecision;text-rendering:geometricPrecision" /><g
       id="_2172507685280"
       style="clip-rule:evenodd;mix-blend-mode:soft-light;fill-rule:evenodd;image-rendering:optimizeQuality;shape-rendering:geometricPrecision;text-rendering:geometricPrecision">
   <polygon
   class="fil261"
   points="778.8,755.54 724.79,786.72 778.8,779.35 "
   id="polygon21" />
   <polygon
   class="fil261"
   points="724.79,849.08 778.8,880.25 745.41,837.17 "
   id="polygon22" />
   <polygon
   class="fil262"
   points="724.79,786.72 745.41,837.17 778.8,779.35 "
   id="polygon23" />
   <polygon
   class="fil262"
   points="812.18,837.17 832.8,786.72 778.8,779.35 "
   id="polygon24" />
   <polygon
   class="fil263"
   points="812.18,837.17 832.8,786.72 832.8,849.08 "
   id="polygon25" />
   <polygon
   class="fil264"
   points="795.49,858.71 812.18,837.17 778.8,837.17 745.41,837.17 762.1,858.71 778.8,880.25 "
   id="polygon26" />
   <polygon
   class="fil262"
   points="812.18,837.17 778.8,880.25 832.8,849.08 "
   id="polygon27" />
   <polygon
   class="fil263"
   points="778.8,779.35 832.8,786.72 778.8,755.54 "
   id="polygon28" />
   <polygon
   class="fil265"
   points="745.41,837.17 724.79,786.72 724.79,849.08 "
   id="polygon29" />
  </g></g></g>
</svg>
